HIERARCHY
ROOT pelvis
{
	OFFSET 0.000000 0.000000 0.000000
	CHANNELS 6 Xposition Yposition Zposition Zrotation Xrotation Yrotation
	JOINT lfemur
	{
		OFFSET 11.446000 0.000000 0.000000
		CHANNELS 3 Zrotation Xrotation Yrotation
		JOINT ltibia
		{
			OFFSET 0.000000 -42.030400 0.000000
			CHANNELS 3 Zrotation Xrotation Yrotation
			JOINT lfoot
			{
				OFFSET 0.000000 -39.930200 0.000000
				CHANNELS 3 Zrotation Xrotation Yrotation
				JOINT ltoes
				{
					OFFSET 0.000000 0.000000 11.775800
					CHANNELS 3 Zrotation Xrotation Yrotation
					End Site
					{
					    OFFSET 0.000000 0.000000 5.000000
					}
				}
			}
		}
	}
	JOINT rfemur
	{
		OFFSET -11.446000 0.000000 0.000000
		CHANNELS 3 Zrotation Xrotation Yrotation
		JOINT rtibia
		{
			OFFSET 0.000000 -42.030400 0.000000
			CHANNELS 3 Zrotation Xrotation Yrotation
			JOINT rfoot
			{
				OFFSET 0.000000 -39.930200 0.000000
				CHANNELS 3 Zrotation Xrotation Yrotation
				JOINT rtoes
				{
					OFFSET 0.000000 0.000000 11.775800
					CHANNELS 3 Zrotation Xrotation Yrotation
					End Site
					{
					    OFFSET 0.000000 0.000000 5.000000
					}
				}
			}
		}
	}
	JOINT thorax
	{
		OFFSET 0.000000 11.255600 -5.000000
		CHANNELS 3 Zrotation Xrotation Yrotation
		JOINT head
		{
			OFFSET 0.000000 43.799300 0.000000
			CHANNELS 3 Zrotation Xrotation Yrotation
			End Site
			{
			    OFFSET 0.000000 5.000000 0.000000
			}
		}
		JOINT lclavicle
		{
			OFFSET 0.000000 39.863000 0.000000
			CHANNELS 3 Zrotation Xrotation Yrotation
			JOINT lhumerus
			{
				OFFSET 17.380600 4.958300 0.000000
				CHANNELS 3 Zrotation Xrotation Yrotation
				JOINT lradius
				{
					OFFSET 0.000000 -27.561300 0.000000
					CHANNELS 3 Zrotation Xrotation Yrotation
					JOINT lhand
					{
						OFFSET 0.000000 -26.933000 0.000000
						CHANNELS 3 Zrotation Xrotation Yrotation
						End Site
						{
						    OFFSET 0.000000 -5.000000 0.000000
						}
					}
				}
			}
		}
		JOINT rclavicle
		{
			OFFSET 0.000000 39.863000 0.000000
			CHANNELS 3 Zrotation Xrotation Yrotation
			JOINT rhumerus
			{
				OFFSET -17.380600 4.958300 0.000000
				CHANNELS 3 Zrotation Xrotation Yrotation
				JOINT rradius
				{
					OFFSET 0.000000 -27.561300 0.000000
					CHANNELS 3 Zrotation Xrotation Yrotation
					JOINT rhand
					{
						OFFSET 0.000000 -26.933000 0.000000
						CHANNELS 3 Zrotation Xrotation Yrotation
						End Site
						{
						    OFFSET 0.000000 -5.000000 0.000000
						}
					}
				}
			}
		}
	}
}
MOTION
Frames: 2
Frame Time:	0.0333333
73.208600 78.476800 4.524700 5.054403 -9.296258 -121.869209 4.394959 -42.917397 11.415031 0.000000 54.665413 -0.000000 0.000000 -0.481414 5.869125 0.000000 -1.533075 -0.000000 -12.252573 -35.040148 -13.479418 -0.000000 58.698699 -0.000000 -0.000000 -16.568964 -8.344736 -0.000000 -29.548169 0.000000 -7.897382 15.920678 -2.068863 8.438684 13.953048 13.741947 -7.318060 0.000000 -1.982886 25.019499 -13.929401 0.230693 180.000036 -45.255845 161.830264 29.882735 2.451138 -0.000000 25.499890 -0.000000 -1.693282 -47.086018 2.731048 34.933902 180.000037 -50.625886 -167.000510 -10.307153 -0.004274 0.000000 
73.078100 78.951600 4.649500 5.421153 -9.456615 -121.967960 4.332629 -42.553071 11.549129 -0.000000 53.388912 -0.000000 0.000000 0.008070 5.643310 -0.000000 -1.540950 0.000000 -12.141409 -34.804219 -13.339775 -0.000000 57.342162 0.000000 -0.000000 -15.736140 -8.214712 -0.000000 -29.548743 -0.000000 -7.653898 15.556800 -1.915698 8.207437 14.198816 13.444437 -7.397665 -0.000000 -2.270758 24.919299 -13.210202 -0.214277 -180.000036 -45.055380 161.344730 29.776442 2.293996 0.000000 25.391152 0.000000 -1.899589 -46.672471 2.561536 35.165261 180.000036 -50.524002 -166.419299 -10.414233 0.030411 0.000000 
